<svg xmlns="http://www.w3.org/2000/svg" viewBox="0 0 1195 600" width="1195" height="600" role="img" aria-label="Metálicos Leyva"><rect width="1195.2" height="600.3" fill="#3E3B28"/><g transform="translate(297.6,20)"><rect x="44" y="80" width="22" height="140" rx="11" fill="#9C906C"/>
<rect x="44" y="79" width="86" height="26" rx="13" fill="#9C906C"/>
<rect x="44" y="137" width="86" height="26" rx="13" fill="#9C906C"/>
<rect x="44" y="195" width="86" height="26" rx="13" fill="#9C906C"/>
<rect x="534" y="80" width="22" height="140" rx="11" fill="#9C906C"/>
<rect x="470" y="79" width="86" height="26" rx="13" fill="#9C906C"/>
<rect x="470" y="137" width="86" height="26" rx="13" fill="#9C906C"/>
<rect x="470" y="195" width="86" height="26" rx="13" fill="#9C906C"/>
<polyline points="250,78 172,150 250,222" fill="none" stroke="#F4EFE6" stroke-width="38" stroke-linejoin="miter" stroke-linecap="butt"/>
<polyline points="350,78 428,150 350,222" fill="none" stroke="#F4EFE6" stroke-width="38" stroke-linejoin="miter" stroke-linecap="butt"/>
<rect x="284" y="118" width="30" height="74" rx="6" fill="#F4EFE6"/>
<path d="M 343.00,82.00 L 321.00,120.11 L 277.00,120.11 L 255.00,82.00 L 277.00,43.89 L 321.00,43.89 Z" fill="#F4EFE6"/>
<path d="M 322.00,82.00 L 310.50,101.92 L 287.50,101.92 L 276.00,82.00 L 287.50,62.08 L 310.50,62.08 Z" fill="#3E3B28"/>
<rect x="284" y="150" width="30" height="6" fill="#3E3B28"/>
<rect x="284" y="188" width="96" height="48" rx="5" fill="#F4EFE6"/>
<rect x="306" y="192" width="4" height="40" fill="#3E3B28"/>
<rect x="330" y="192" width="4" height="40" fill="#3E3B28"/>
<rect x="354" y="192" width="4" height="40" fill="#3E3B28"/>
<rect x="288" y="202" width="88" height="4" fill="#3E3B28"/>
<rect x="288" y="218" width="88" height="4" fill="#3E3B28"/></g><g fill="#F4EFE6" transform="translate(60.0,485.7)"><path transform="translate(0.000,0.000) scale(0.15000,-0.15000)" d="M484 149Q471 139 450.5 132.0Q430 125 403 125Q367 125 343.5 134.0Q320 143 313 165Q285 254 267.0 308.0Q249 362 239 403H234Q231 344 229.5 295.5Q228 247 227.5 201.5Q227 156 225.5 108.5Q224 61 221 4Q208 0 187.0 -4.0Q166 -8 145 -8Q102 -8 77.0 6.0Q52 20 52 57Q52 82 54.0 125.5Q56 169 59.5 223.5Q63 278 66.5 338.0Q70 398 74.0 457.0Q78 516 81 567Q89 580 116.0 595.0Q143 610 192 610Q245 610 275.5 593.5Q306 577 319 540Q331 508 345.0 464.5Q359 421 373.0 376.5Q387 332 398 297H403Q427 380 451.5 459.5Q476 539 495 591Q510 599 534.0 604.5Q558 610 586 610Q635 610 666.0 595.5Q697 581 702 554Q706 534 710.5 493.0Q715 452 720.0 399.0Q725 346 730.0 288.5Q735 231 739.5 177.0Q744 123 747.0 79.5Q750 36 751 11Q734 1 715.5 -3.5Q697 -8 668 -8Q631 -8 604.5 5.0Q578 18 576 56Q572 129 570.0 192.0Q568 255 567.0 307.0Q566 359 564 398H559Q549 359 530.0 300.0Q511 241 484 149Z"/>
<path transform="translate(120.300,0.000) scale(0.15000,-0.15000)" d="M134 167 128 279 359 317Q357 337 339.0 357.0Q321 377 283 377Q243 377 216.5 351.0Q190 325 188 277L194 193Q204 147 239.5 129.0Q275 111 319 111Q361 111 399.0 122.0Q437 133 460 146Q476 136 487.0 118.0Q498 100 498 80Q498 47 473.5 25.5Q449 4 406.0 -6.0Q363 -16 307 -16Q229 -16 166.5 13.5Q104 43 67.5 102.0Q31 161 31 250Q31 316 52.5 364.0Q74 412 110.0 442.0Q146 472 190.5 486.5Q235 501 282 501Q353 501 406.0 473.5Q459 446 489.0 398.5Q519 351 519 289Q519 255 500.0 237.0Q481 219 447 214Z"/>
<path transform="translate(203.400,0.000) scale(0.15000,-0.15000)" d="M54 264H222V167Q222 142 238.5 130.5Q255 119 285 119Q300 119 316.0 121.5Q332 124 344 128Q353 118 359.5 104.0Q366 90 366 71Q366 34 337.5 9.5Q309 -15 237 -15Q149 -15 101.5 25.0Q54 65 54 155ZM164 345V475H353Q359 465 364.5 448.0Q370 431 370 411Q370 376 354.5 360.5Q339 345 313 345ZM222 240H54V599Q65 602 85.5 605.5Q106 609 129 609Q178 609 200.0 592.0Q222 575 222 529Z"/>
<path transform="translate(263.700,0.000) scale(0.15000,-0.15000)" d="M260 108Q277 108 297.5 111.5Q318 115 328 121V201L256 195Q228 193 210.0 183.0Q192 173 192 153Q192 133 207.5 120.5Q223 108 260 108ZM252 501Q361 501 426.5 456.5Q492 412 492 318V94Q492 68 477.5 51.5Q463 35 443 23Q411 4 365.0 -6.0Q319 -16 260 -16Q155 -16 91.5 24.5Q28 65 28 147Q28 216 69.5 253.0Q111 290 196 299L327 313V320Q327 349 301.5 361.5Q276 374 228 374Q191 374 154.5 366.0Q118 358 89 346Q76 355 67.0 373.5Q58 392 58 412Q58 460 109 480Q138 491 177.5 496.0Q217 501 252 501ZM219 643 320 752Q372 752 398.0 730.0Q424 708 424 680Q424 657 414.0 641.5Q404 626 380 606L285 528Q241 528 218.5 549.0Q196 570 196 594Q196 606 200.5 617.0Q205 628 219 643Z"/>
<path transform="translate(346.050,0.000) scale(0.15000,-0.15000)" d="M57 264H227V1Q216 -2 195.5 -5.0Q175 -8 151 -8Q102 -8 79.5 9.0Q57 26 57 72ZM227 175H57V652Q68 655 88.5 658.0Q109 661 133 661Q183 661 205.0 644.5Q227 628 227 581Z"/>
<path transform="translate(389.400,0.000) scale(0.15000,-0.15000)" d="M48 621Q48 659 74.0 685.0Q100 711 141 711Q182 711 208.0 685.0Q234 659 234 621Q234 584 208.0 557.5Q182 531 141 531Q100 531 74.0 557.5Q48 584 48 621ZM56 264H226V1Q215 -2 194.5 -5.0Q174 -8 150 -8Q101 -8 78.5 9.0Q56 26 56 72ZM226 175H56V479Q67 482 87.5 485.0Q108 488 132 488Q182 488 204.0 471.5Q226 455 226 408Z"/>
<path transform="translate(432.450,0.000) scale(0.15000,-0.15000)" d="M326 367Q276 367 239.5 335.0Q203 303 203 241Q203 179 238.0 149.0Q273 119 325 119Q355 119 378.5 126.5Q402 134 418 142Q437 128 446.5 112.0Q456 96 456 73Q456 33 416.5 9.0Q377 -15 304 -15Q221 -15 159.5 14.0Q98 43 64.5 100.5Q31 158 31 241Q31 329 68.0 386.5Q105 444 166.0 472.5Q227 501 299 501Q370 501 409.5 475.0Q449 449 449 408Q449 389 440.0 372.5Q431 356 419 344Q402 352 378.0 359.5Q354 367 326 367Z"/>
<path transform="translate(506.550,0.000) scale(0.15000,-0.15000)" d="M555 243Q555 163 522.5 105.0Q490 47 431.5 15.5Q373 -16 293 -16Q214 -16 155.0 15.0Q96 46 63.5 104.0Q31 162 31 243Q31 322 64.0 380.0Q97 438 156.0 469.5Q215 501 293 501Q372 501 430.5 469.0Q489 437 522.0 379.0Q555 321 555 243ZM293 368Q252 368 228.5 335.5Q205 303 205 243Q205 181 228.0 149.0Q251 117 293 117Q335 117 358.0 149.5Q381 182 381 243Q381 302 357.5 335.0Q334 368 293 368Z"/>
<path transform="translate(595.200,0.000) scale(0.15000,-0.15000)" d="M462 145Q462 69 404.5 26.0Q347 -17 237 -17Q152 -17 97.5 7.5Q43 32 43 84Q43 108 53.0 125.0Q63 142 77 152Q106 136 143.5 123.5Q181 111 230 111Q294 111 294 144Q294 158 282.0 166.0Q270 174 242 179L212 185Q126 202 83.0 239.0Q40 276 40 343Q40 418 101.0 460.0Q162 502 260 502Q309 502 349.5 492.5Q390 483 414.0 462.5Q438 442 438 410Q438 388 429.5 371.0Q421 354 408 343Q397 350 373.5 357.0Q350 364 323.0 369.0Q296 374 275 374Q242 374 224.0 366.5Q206 359 206 343Q206 332 216.0 325.0Q226 318 254 312L285 305Q381 283 421.5 244.5Q462 206 462 145Z"/>
<path transform="translate(700.500,0.000) scale(0.15000,-0.15000)" d="M57 264H227V1Q216 -2 195.5 -5.0Q175 -8 151 -8Q102 -8 79.5 9.0Q57 26 57 72ZM227 175H57V652Q68 655 88.5 658.0Q109 661 133 661Q183 661 205.0 644.5Q227 628 227 581Z"/>
<path transform="translate(743.850,0.000) scale(0.15000,-0.15000)" d="M134 167 128 279 359 317Q357 337 339.0 357.0Q321 377 283 377Q243 377 216.5 351.0Q190 325 188 277L194 193Q204 147 239.5 129.0Q275 111 319 111Q361 111 399.0 122.0Q437 133 460 146Q476 136 487.0 118.0Q498 100 498 80Q498 47 473.5 25.5Q449 4 406.0 -6.0Q363 -16 307 -16Q229 -16 166.5 13.5Q104 43 67.5 102.0Q31 161 31 250Q31 316 52.5 364.0Q74 412 110.0 442.0Q146 472 190.5 486.5Q235 501 282 501Q353 501 406.0 473.5Q459 446 489.0 398.5Q519 351 519 289Q519 255 500.0 237.0Q481 219 447 214Z"/>
<path transform="translate(826.950,0.000) scale(0.15000,-0.15000)" d="M128 124Q113 158 96.0 202.5Q79 247 60.5 309.5Q42 372 20 461Q34 475 57.5 485.5Q81 496 109 496Q144 496 167.0 481.5Q190 467 201 427Q221 357 241.0 288.5Q261 220 280 152H284Q300 198 315.5 253.0Q331 308 344.5 365.5Q358 423 367 477Q384 486 402.0 491.0Q420 496 440 496Q475 496 501.0 481.0Q527 466 527 429Q527 397 519.0 355.0Q511 313 497.0 266.0Q483 219 465.0 171.5Q447 124 427.0 80.5Q407 37 387 2Q331 -95 283.0 -142.0Q235 -189 186 -189Q146 -189 119.0 -164.0Q92 -139 87 -99Q108 -81 129.5 -60.0Q151 -39 171.0 -15.5Q191 8 207 31Q190 36 170.5 54.5Q151 73 128 124Z"/>
<path transform="translate(910.350,0.000) scale(0.15000,-0.15000)" d="M438 496Q473 496 497.0 481.0Q521 466 521 429Q521 410 511.0 371.0Q501 332 485.0 282.5Q469 233 449.5 181.5Q430 130 411.0 86.0Q392 42 377 15Q364 5 336.5 -2.5Q309 -10 275 -10Q236 -10 207.5 0.0Q179 10 168 32Q157 53 141.5 91.0Q126 129 108.5 177.5Q91 226 74.0 277.5Q57 329 42.5 377.0Q28 425 20 461Q34 475 57.5 485.5Q81 496 109 496Q144 496 167.0 481.5Q190 467 200 427L239 274Q247 245 254.0 218.5Q261 192 266.5 171.0Q272 150 275 136H280Q299 210 320.0 300.5Q341 391 358 477Q394 496 438 496Z"/>
<path transform="translate(992.850,0.000) scale(0.15000,-0.15000)" d="M260 108Q277 108 297.5 111.5Q318 115 328 121V201L256 195Q228 193 210.0 183.0Q192 173 192 153Q192 133 207.5 120.5Q223 108 260 108ZM252 501Q361 501 426.5 456.5Q492 412 492 318V94Q492 68 477.5 51.5Q463 35 443 23Q411 4 365.0 -6.0Q319 -16 260 -16Q155 -16 91.5 24.5Q28 65 28 147Q28 216 69.5 253.0Q111 290 196 299L327 313V320Q327 349 301.5 361.5Q276 374 228 374Q191 374 154.5 366.0Q118 358 89 346Q76 355 67.0 373.5Q58 392 58 412Q58 460 109 480Q138 491 177.5 496.0Q217 501 252 501Z"/></g></svg>