<?xml version="1.0" encoding="utf-8"?>
<!-- Generator: Adobe Illustrator 16.0.0, SVG Export Plug-In . SVG Version: 6.00 Build 0)  -->
<!DOCTYPE svg PUBLIC "-//W3C//DTD SVG 1.1//EN" "http://www.w3.org/Graphics/SVG/1.1/DTD/svg11.dtd">
<svg version="1.1" id="Layer_1" xmlns="http://www.w3.org/2000/svg" xmlns:xlink="http://www.w3.org/1999/xlink" x="0px" y="0px"
	 width="792px" height="612px" viewBox="0 0 792 612" enable-background="new 0 0 792 612" xml:space="preserve">
<g>
	
		<linearGradient id="SVGID_1_" gradientUnits="userSpaceOnUse" x1="222.1807" y1="400.4004" x2="174.0484" y2="296.3865" gradientTransform="matrix(1 0 0 -1 0 613)">
		<stop  offset="0" style="stop-color:#F6BD16"/>
		<stop  offset="1" style="stop-color:#ED2937"/>
	</linearGradient>
	<path fill="url(#SVGID_1_)" d="M196.981,327.32c-3.396-0.021-6.16-1.072-8.214-3.129c-3.416-3.425-3.445-8.369-3.445-8.578v-8.653
		h-8.853c-7.107,0-12.892-5.783-12.892-12.895c0-7.106,5.784-12.889,12.892-12.889l8.846-0.047l-0.004-16.431h-8.842
		c-7.107,0-12.892-5.782-12.892-12.892c0-7.108,5.784-12.894,12.892-12.894h8.836l-0.002-8.722c0-9.258,7.673-11.703,11.73-11.703
		h37.501c6.83,0,12.387,5.556,12.387,12.389c0,6.828-5.557,12.386-12.387,12.386h-44.88l0.005,17.086l29.239,0.009
		c6.939,0,12.586,5.645,12.586,12.589c0,6.939-5.549,12.488-12.489,12.488l-9.549,0.044h-19.783l0.005,17.131h13.262
		c6.831,0,12.389,5.559,12.389,12.387c0,6.832-5.558,12.26-12.389,12.26L196.981,327.32z M202.955,323.037
		c4.406,0,8.014-3.605,8.014-8.039c0-4.432-3.607-8.038-8.038-8.038h-13.26l0.002,8.657c0.007,0.746,0.27,7.354,7.403,7.354
		L202.955,323.037z M185.315,285.48h-3.616l-5.21,0.044c-4.729,0-8.562,3.833-8.562,8.542c0,4.714,3.833,8.545,8.542,8.545h8.851
		L185.315,285.48z M209.46,281.13l9.548-0.042c4.531,0,8.128-3.6,8.128-8.141c0-4.544-3.696-8.242-8.239-8.242l-5.871-0.01
		l-23.363,0.004l0.002,16.431H209.46z M176.47,243.264c-4.709,0-8.542,3.833-8.542,8.544c0,4.709,3.833,8.542,8.542,8.542h8.842
		l-0.005-17.086H176.47z M189.655,238.915h44.88c4.431,0,8.037-3.607,8.037-8.036c0-4.433-3.606-8.039-8.037-8.039h-37.501
		c-0.748,0.009-7.381,0.278-7.381,7.354L189.655,238.915z"/>
</g>
<g>
	<path fill="#071C2C" d="M281.515,302.629c0-6.867-1.463-11.873-4.388-15.021c-2.573-2.768-6.019-4.316-10.335-4.648v4.729
		c2.435,0.343,4.468,1.419,6.087,3.255c1.994,2.256,3.018,5.865,3.073,10.824h-23.306c0.325-4.959,1.612-8.568,3.863-10.824
		c1.46-1.463,3.173-2.445,5.134-2.961v-4.812c-3.819,0.637-7.052,2.396-9.681,5.312c-3.36,3.73-5.041,9.174-5.041,16.336
		c0,14.937,6.368,22.406,19.105,22.406c5.455,0,10.195-1.071,14.225-3.213l-2.051-4.621c-2.083,1.195-3.941,2.021-5.577,2.479
		c-1.637,0.459-3.698,0.686-6.187,0.686c-9.03-0.028-13.682-5.521-13.954-16.481h28.872
		C281.462,304.479,281.515,303.333,281.515,302.629z"/>
	<g>
		<path fill="#071C2C" d="M377.444,321.602c-0.15-0.18-0.225-0.604-0.225-1.282v-9.455h-5.562v9.535c0,0.651-0.089,1.077-0.265,1.28
			c-0.176,0.205-0.534,0.334-1.076,0.388l-5.562,0.487v3.654h23.387v-3.572l-9.582-0.649
			C377.964,321.904,377.592,321.775,377.444,321.602z"/>
		<path fill="#071C2C" d="M378.967,269.631c1.163-1.584,3.382-2.375,6.658-2.375c2.327,0,3.991,0.333,4.994,0.995
			c1.001,0.662,1.502,2.05,1.502,4.162l5.562-0.732c0-3.487-1.027-5.875-3.088-7.162c-2.06-1.288-4.969-1.932-8.726-1.932
			c-9.475,0-14.21,4.692-14.21,14.077v7.035h-6.821v4.67h6.171c0.433,0.026,0.65,0.311,0.65,0.854v16.494h5.562V288.37h14.576v-4.67
			H377.91c-0.46,0-0.69-0.271-0.69-0.812v-5.969C377.22,273.645,377.803,271.214,378.967,269.631z"/>
	</g>
	<g>
		<path fill="#071C2C" d="M534.733,321.602c-0.15-0.18-0.226-0.604-0.226-1.282v-9.455h-5.561v9.535c0,0.651-0.09,1.077-0.267,1.28
			c-0.176,0.205-0.532,0.334-1.075,0.388l-5.562,0.487v3.654h23.387v-3.572l-9.582-0.649
			C535.253,321.904,534.882,321.775,534.733,321.602z"/>
		<path fill="#071C2C" d="M536.255,269.631c1.164-1.584,3.383-2.375,6.66-2.375c2.326,0,3.99,0.333,4.994,0.995
			c1.002,0.662,1.502,2.05,1.502,4.162l5.562-0.732c0-3.487-1.028-5.875-3.09-7.162c-2.061-1.288-4.969-1.932-8.727-1.932
			c-9.476,0-14.209,4.692-14.209,14.077v7.035h-6.822v4.67h6.172c0.432,0.026,0.65,0.311,0.65,0.854v16.494h5.561V288.37h14.576
			v-4.67H535.2c-0.461,0-0.691-0.271-0.691-0.812v-5.969C534.509,273.645,535.093,271.214,536.255,269.631z"/>
	</g>
	<g>
		<path fill="#071C2C" d="M610.841,321.691c-0.137-0.191-0.203-0.632-0.203-1.312v-1.162h-5.562v1.172
			c0,0.601-0.09,1.015-0.264,1.246c-0.177,0.232-0.535,0.375-1.076,0.431l-4.345,0.489v3.654h20.058v-3.572l-7.474-0.576
			C611.354,322.008,610.976,321.885,610.841,321.691z"/>
		<path fill="#071C2C" d="M622.94,282.888c-4.226,0-8.527,1.952-12.912,5.86l-0.73-5.049h-9.461l-0.69,3.33l4.834,1.594
			c0.729,0.217,1.096,0.805,1.096,1.758v23.688h5.562V293.76c4.089-4.136,7.904-6.203,11.449-6.203c0.623,0,0.959,0.246,1.017,0.74
			l1.096,6.408l4.223,0.244v-11.345C626.661,283.127,624.835,282.888,622.94,282.888z"/>
	</g>
	<g>
		<path fill="#071C2C" d="M563.054,290.997c0.379-0.856,0.808-1.519,1.281-1.994c0.475-0.475,1.229-0.82,2.258-1.037
			c1.031-0.217,1.894-0.34,2.584-0.367c0.049-0.002,0.109-0.004,0.158-0.004v-4.573c-8.268,0.687-12.412,4.216-12.412,10.6
			l5.562,0.691C562.483,292.957,562.675,291.851,563.054,290.997z"/>
		<path fill="#071C2C" d="M588.792,321.986c-0.621-0.056-1-0.179-1.135-0.367c-0.138-0.188-0.203-0.623-0.203-1.301v-22.874
			c0-5.607-1.064-9.436-3.191-11.484c-1.873-1.802-5.133-2.811-9.778-3.026v4.716c2.68,0.241,4.534,0.959,5.537,2.172
			c1.245,1.512,1.87,4.129,1.87,7.859v4.654l-11.653,1.084c-5.035,0.486-8.789,1.711-11.267,3.673
			c-2.034,1.611-3.221,3.945-3.582,6.976h5.529c0.24-1.744,0.945-3.095,2.131-4.035c1.49-1.183,4.226-1.963,8.199-2.342
			l10.643-0.953v7.968c-1.653,2.225-3.764,4.088-6.325,5.59c-2.564,1.506-5.201,2.258-7.914,2.258c-3.113,0-5.138-1.129-6.121-3.338
			h-5.957c0.022,0.121,0.031,0.246,0.061,0.363c0.25,1.086,0.726,2.25,1.426,3.498c0.701,1.246,1.863,2.25,3.49,3.008
			c1.623,0.76,3.623,1.139,6.004,1.139c5.451,0,10.591-2.221,15.418-6.664l0.244,0.08l0.773,5.568h10.106v-3.654L588.792,321.986z"
			/>
	</g>
	<g>
		<path fill="#071C2C" d="M505.622,273.427c2.99,0,4.486-1.476,4.486-4.425c0-2.951-1.496-4.425-4.486-4.425
			c-2.992,0-4.488,1.474-4.488,4.425C501.134,271.952,502.63,273.427,505.622,273.427z"/>
		<path fill="#071C2C" d="M510.88,322.064c-0.623-0.056-1.002-0.177-1.139-0.367c-0.135-0.188-0.201-0.623-0.201-1.301v-20.859
			h-5.562v20.851c0,0.601-0.09,1.015-0.266,1.246c-0.176,0.232-0.533,0.375-1.074,0.431l-6.01,0.489v3.654h20.06v-3.572
			L510.88,322.064z"/>
		<path fill="#071C2C" d="M503.978,290.381v4.008h5.562V283.7h-10.799l-0.691,3.33l4.832,1.594
			C503.61,288.84,503.978,289.428,503.978,290.381z"/>
	</g>
	<g>
		<path fill="#071C2C" d="M486.843,322.061c-0.623-0.055-1.002-0.178-1.135-0.37c-0.137-0.191-0.205-0.632-0.205-1.316v-21.947
			c0-5.111-0.9-8.98-2.699-11.604c-1.801-2.622-5.002-3.934-9.604-3.934c-5.062,0-10.135,1.667-15.226,4.998
			c-1.598-3.331-4.887-4.998-9.864-4.998c-5.226-0.028-10.449,1.858-15.675,5.657l-0.241-0.082l-0.65-4.764h-9.379l-0.691,3.33
			l4.832,1.594c0.73,0.217,1.099,0.805,1.099,1.758v30.007c0,0.601-0.09,1.015-0.267,1.246c-0.176,0.232-0.532,0.375-1.076,0.431
			l-4.342,0.489v3.654h17.537v-3.572l-4.953-0.576c-0.621-0.055-1-0.178-1.135-0.37c-0.137-0.191-0.203-0.632-0.203-1.316v-26.476
			c4.492-4.228,9.121-6.34,13.885-6.34c2.925,0,4.845,0.912,5.767,2.738c0.92,1.826,1.379,4.988,1.379,9.49v5.932h5.563v-7.703
			c0-2.25-0.108-4.074-0.323-5.475c4.491-3.322,8.729-4.982,12.707-4.982c3.112,0,5.223,0.994,6.336,2.986
			c1.106,1.99,1.662,5.207,1.662,9.652v20.259c0,0.604-0.066,0.996-0.201,1.174c-0.138,0.18-0.517,0.322-1.14,0.432l-4.303,0.494
			v3.654h17.539v-3.572L486.843,322.061z"/>
		<path fill="#071C2C" d="M459.761,321.689c-0.135-0.191-0.201-0.632-0.201-1.316v-9.51h-5.563v9.592
			c0,0.604-0.066,0.996-0.201,1.174c-0.137,0.18-0.516,0.322-1.137,0.432l-4.062,0.494v3.654h16.605v-3.572l-4.303-0.576
			C460.276,322.006,459.897,321.883,459.761,321.689z"/>
	</g>
	<g>
		<path fill="#071C2C" d="M353.549,322.061c-0.623-0.055-1.001-0.178-1.136-0.37c-0.136-0.191-0.204-0.632-0.204-1.316v-21.947
			c0-5.111-0.9-8.98-2.7-11.604c-1.8-2.622-5-3.934-9.601-3.934c-5.062,0-10.138,1.667-15.227,4.998
			c-1.598-3.331-4.886-4.998-9.866-4.998c-5.224-0.028-10.449,1.858-15.673,5.657l-0.242-0.082l-0.649-4.764h-9.38l-0.69,3.33
			l4.832,1.594c0.73,0.217,1.097,0.805,1.097,1.758v30.007c0,0.601-0.09,1.015-0.266,1.246c-0.175,0.232-0.533,0.375-1.075,0.431
			l-4.344,0.489v3.654h17.539v-3.572l-4.953-0.576c-0.622-0.055-1.001-0.178-1.136-0.37c-0.136-0.191-0.203-0.632-0.203-1.316
			v-26.476c4.492-4.228,9.121-6.34,13.885-6.34c2.924,0,4.845,0.912,5.766,2.738c0.92,1.826,1.38,4.988,1.38,9.49v5.932h5.563
			v-7.703c0-2.25-0.107-4.074-0.324-5.475c4.492-3.322,8.729-4.982,12.706-4.982c3.113,0,5.225,0.994,6.337,2.986
			c1.108,1.99,1.663,5.207,1.663,9.652v20.259c0,0.604-0.068,0.996-0.203,1.174c-0.136,0.18-0.516,0.322-1.137,0.432l-4.304,0.494
			v3.654h17.539v-3.572L353.549,322.061z"/>
		<path fill="#071C2C" d="M326.468,321.689c-0.137-0.191-0.202-0.632-0.202-1.316v-9.51h-5.563v9.592
			c0,0.604-0.066,0.996-0.203,1.174c-0.136,0.18-0.515,0.322-1.136,0.432l-4.06,0.494v3.654h16.604v-3.572l-4.303-0.576
			C326.982,322.006,326.604,321.883,326.468,321.689z"/>
	</g>
	<g>
		<path fill="#071C2C" d="M403.409,290.381v4.008h5.562V283.7h-10.8l-0.69,3.33l4.833,1.594
			C403.043,288.84,403.409,289.428,403.409,290.381z"/>
		<path fill="#071C2C" d="M405.053,273.427c2.99,0,4.486-1.476,4.486-4.425c0-2.951-1.496-4.425-4.486-4.425
			s-4.485,1.474-4.485,4.425C400.566,271.952,402.062,273.427,405.053,273.427z"/>
		<path fill="#071C2C" d="M410.311,322.064c-0.622-0.056-1.001-0.177-1.137-0.367c-0.136-0.188-0.203-0.623-0.203-1.301v-20.859
			h-5.562v20.851c0,0.601-0.09,1.015-0.266,1.246c-0.178,0.232-0.533,0.375-1.075,0.431l-6.01,0.489v3.654h20.059v-3.572
			L410.311,322.064z"/>
	</g>
</g>
</svg>
